<?xml version="1.0" encoding="utf-8"?>
<!-- Generator: Adobe Illustrator 22.0.1, SVG Export Plug-In . SVG Version: 6.00 Build 0)  -->
<svg version="1.1" id="Layer_1" xmlns="http://www.w3.org/2000/svg" xmlns:xlink="http://www.w3.org/1999/xlink" x="0px" y="0px"
	 viewBox="0 0 675.2 373.2" style="enable-background:new 0 0 675.2 373.2;" xml:space="preserve">
<style type="text/css">
	.st0{fill:#FFFFFF;}
</style>
<g>
	<path d="M164.4,167.9c1.4,6.7,3.2,12.8,3.8,19c1,10.5,3.5,20.8,1.1,31.6c-4.2,18.7-12.6,35.4-23.7,50.8
		c-15,20.8-33.8,37.9-55.9,50.4c-13.4,7.6-27.7,15.3-44.3,14.4c-14.5-0.8-26.5-6.8-33.5-19.6C2.7,297.8-1,279.7,0.2,260
		c1-15.7,6.6-29.7,10.5-44.3c1.1-4.1,2.3-8.1,3.5-12.1c0.5-1.7,1.1-3.5,1.8-5.1c2.3-5.3,5.7-10.4,6.9-15.9c1.8-7.8,6-14.1,9.4-21
		c5.1-10.3,9.5-21,14.6-31.3c5.8-11.5,11.5-23.1,18-34.3c4.3-7.4,8.5-15,11.7-23.2c4.4-11,10.6-21.5,19.4-29.9
		c0.6-0.6,1.4-1.1,1.6-1.8c2.3-11.4,12.9-16.9,19-25.6c5.2-7.2,13.5-12.1,22.3-14.8c4.2-1.3,8.5-0.8,11.8,2.8
		c3.2,3.5,2.6,7.4,1.1,11.2c-0.9,2.2-2.2,4.1-3.2,5.9c-5.1-0.4-2.4-5-5-7.2c-7.3,0.9-13.5,5.2-18.4,10.5
		C114.3,36,105.7,49.8,97.7,64c-7.6,13.4-16.1,26.4-23.6,39.9c-6.2,11.1-12,22.6-17.3,34.2c-10.9,23.9-22.5,47.6-31.6,72.2
		c-5.8,15.8-10.7,32.3-11.7,49.5c-1.1,18.4,1,36.3,11.8,51.9c4.5,6.5,10.8,11.2,19.2,11.6c8.3,0.4,16-1.1,24.1-4
		c23.5-8.4,40.9-24.7,57.5-41.9c10.1-10.5,17.9-23.3,24-36.6c8.8-19.5,10.6-39.9,4.9-60.7c-0.4-1.5-0.3-3.2-0.6-4.8
		c-1-6.2-3.5-8.5-9.9-9.6c-6.3-1-12.5-2.2-18.7-3.3c-2.2-2.8-4.3-5.8-6.6-8.6c-2-2.4-2.3-7.4,0.1-8.4c7.7-2.9,13.6-9,21.9-10.9
		c5.3-1.2,8.8-0.4,11.8,3.9c0.9,1.3,2.6,2.3,3,3.7c2.1,7.2,7.6,8,13.9,7.8c16.5-0.6,33-1.1,49.6-1.8c4.8-0.2,5.7-0.1,10.3,4
		c-2.2,6-5.8,10.4-12.4,12.5c-9.6,3-19.4,3.5-29.2,3.5C180.5,167.9,172.8,167.9,164.4,167.9z"/>
	<path d="M282.4,262.3c1.1-17.9,2.6-34.1,7.9-49.5c3.7-10.8,7.7-21.6,13.1-31.6c5.2-9.7,10.3-20.1,21.3-25c4.6-2,9.3-4.4,14.1-5.3
		c9.3-1.7,16.3,2.2,20.6,10.9c2,4.1,3.7,8.3,5.6,12.5c5.2,11.8,3.2,23.6-1.1,35c-4.3,11.2-9.3,22.1-14.5,32.9
		c-6.1,12.8-13.8,24.8-23.5,35.1c-5.2,5.5-11.7,10.3-18.5,13.8c-11.5,5.9-22.4,0.5-23.6-13C283.2,272.3,282.7,266.5,282.4,262.3z
		 M331.9,168.7c1.9,2.9,3.8,5.7,5.5,8.7c1.8,3.1,0.6,5.9-3,6.5c-1.7,0.3-3.7-0.1-5.3-0.8c-3.5-1.5-5.7-0.8-8.4,2.1
		c-5.3,5.8-8.9,12.4-11.7,19.7c-2.4,6.3-5.2,12.5,1.1,18.2c0.3,0.2,0,1,0,2.4c-2.6,0.7-5.5,1.5-9.2,2.5c-1.4,8.4-3,17-4.1,25.6
		c-1.1,8.9-1.4,17.9,1.7,27.2c5.1-0.6,9-1.2,12.8-4.6c9.4-8.6,16.9-18.5,22.5-29.8c5.3-10.7,9.9-21.8,14.9-32.6
		c5.6-12.2,5.6-24.9,2.1-37.4c-2.8-10-7.6-12-17.2-8.7C333.3,167.9,332.9,168.2,331.9,168.7z"/>
	<path d="M663.9,127.5c-1.6,7.8-2.2,14-4.3,19.5c-3.4,8.8-2,17.8-2.8,26.8c-1,11.1,4.5,19.9,9.6,28.9c0.8,1.4,1.7,2.7,2.7,4
		c10.4,13.7,6,27.2-0.9,40.4c-7.3,14-16.7,26.6-27,38.6c-18.3,21.2-36.3,42.6-54.5,63.9c-5.5,6.5-10.9,13.1-16.6,19.4
		c-1.8,1.9-4.6,2.9-6.9,4.3c-0.6-0.4-1.1-0.8-1.7-1.2c0.5-2.4,0.6-5.1,1.6-7.2c2.7-5.4,5.4-10.9,8.8-15.9
		c4.1-6.2,8.5-12.1,13.2-17.9c11.8-14.6,23.9-29,35.7-43.7c6.5-8.1,15.6-14.5,17.9-25.6c8.6-6,12.2-15.4,16.3-24.4
		c4-8.6,4.4-16.6-1.7-25.4c-10.9-15.5-14.6-33.3-13.3-52.3c0.6-9.6,2.5-18.9,4.5-28.2c0.9-4.1,2.4-7.9,7.1-8.3
		C656.5,122.6,662.5,121.3,663.9,127.5z"/>
	<path d="M259.2,278.5c0.3,2.2,0.6,5.1,0.9,8c0.7,6,1.7,12,2.1,18.1c0.1,1.5-1.2,3.2-2,5c-5.5-1.2-8.5-3.6-9.5-8.9
		c-0.8-3.8-2.7-7.5-4.4-11.1c-2.8-6-8.2-8.5-14.3-8.9c-6.5-0.4-13.2,0.3-20.3,0.6c-3.3,13.9-6.5,27.5-9.6,40.6
		c-2.5,2-4.6,4.1-7.2,5.4c-1.7,0.8-4.2,1-5.9,0.3c-1-0.4-1.5-3.1-1.4-4.7c0.6-8.4,1.1-16.9,2.3-25.2c1-6.6,3.2-13,4.7-19.5
		c0.6-2.6,1-5.2,1.4-7.9c0.6-4.1,0.3-8.7,2-12.4c3.5-7.5,2.3-15.1,1.7-22.6c-0.5-5.7-2.2-11.4-3.7-17c-2.5-9.3-1.4-11.2,9.1-13.9
		c1.6,2.2,3.2,4.6,5.3,7.5c1.2-1.9,2.4-3.5,3.2-5.3c4.1-8.5,7.8-17.3,12.5-25.5c1.6-2.7,5.6-4.4,8.9-5.7c2.5-0.9,3.6,1.6,4,3.8
		c1.3,6.2,0.5,12.2-1.5,18.1c-4.7,13.6-9.7,26.9-16.7,39.6c-4.7,8.5-8.6,17.9-6.2,29.5c4.4,0,9.1,0.5,13.7-0.1
		c10.3-1.4,18.7,1.1,25.1,9.7C254.6,277.7,257.5,277.9,259.2,278.5z"/>
	<path d="M595,181.6c-0.9,1.4-1.8,2.8-3.3,5c-1.4-1.9-3.1-3.2-3.3-4.6c-1.3-9.2,0.2-18,5-26c1.9-3.1,5.1-3.7,8.4-2.6
		c1.7,0.6,3.3,1.5,4.7,2.2c1.4,4.2,3.2,8,4,12.1c1.8,9.1,0.3,17.8-2.4,26.7c-3.5,11.8-8,23.1-14,33.9c-6.3,11.3-13.6,21.6-24.7,28.6
		c-6.6,4.2-14,5.5-21.6,3.3c-9.5-2.8-13-11.2-14.4-19.5c-2-12.2-3.6-24.7-1.1-37.2c1.3-6.8,0.9-13.9,2-20.7c0.9-5.4,2.6-10.8,4.5-16
		c0.6-1.8,2.6-3.5,4.4-4.4c1.9-1,5.3-2,6.3-1.1c1.8,1.8,3.4,5,3.1,7.3c-0.6,5-3.1,9.7-3.8,14.6c-1.5,9.7-2.1,19.5-3.4,29.3
		c-1,7.8,0.1,15.4,1.7,22.9c0.6,2.8,1.8,5.6,3.4,7.9c5.3,7.4,9.6,7.2,16,0.6c10-10.3,16.7-22.5,21.8-35.7c2.6-6.6,4.6-13.5,6.7-20.3
		c0.6-1.9,0.5-4,0.7-6C595.7,181.8,595.3,181.7,595,181.6z"/>
	<path d="M487.6,156c-2-0.7-4.6-0.8-5-1.9c-2-5.2-5.3-3.2-9.1-2.9c-9.6,0.8-17.7,5.6-26.1,9.2c-4.3,1.8-7.2,6.1-7.8,11.9
		c-1.4,13.5-4.3,26.8-5.5,40.3c-1.4,14.9-2.1,29.8-2.1,44.8c0,5.3-1.9,8-5.7,10.2c-5.9,3.5-10.8,0.9-10.6-6
		c0.2-13.6,0.5-27.2,1.6-40.8c1-13.2,3-26.3,4.3-39.5c0.4-3.4,0.1-6.8,0.1-10.9c-5.7,1.9-10.5,3.9-15.6,5.2c-3.8,1-7.9,1.3-11.8,1.5
		c-2.7,0.1-4.9-1.5-4.6-4.4c0.2-2.1,1.4-4.5,2.9-5.9c1.7-1.5,4.3-2.5,6.6-2.7c13.5-1.3,25.5-7,37.7-12.4c8.5-3.8,17-7.4,25.7-10.6
		c4.2-1.5,8.8-1.9,13.3-2.7c0.5-0.1,1.1-0.2,1.6-0.2c5.5-0.4,9.6,1.9,12.8,6.5C493.4,149.6,488.7,152,487.6,156z"/>
	<path d="M501.6,186c9.2,1.4,16.9-7.4,26.1-2c-2.2,5.1-6.1,7.2-11.2,8.8c-5.7,1.8-10.9,5.2-16.6,8.1c-2.4,22.9-9.1,45.2-8.6,68.6
		c-1.7,0.8-3.3,1.9-5,2.4c-4,1.2-7.1-0.4-7.9-4.5c-1.6-7.5-2.1-15-0.5-22.9c2.5-12.2,3.5-24.7,5.1-37.1c0.2-1.2,0-2.5,0-3.6
		c-5-0.8-9.4-1.5-13.8-2.2c-3.1-0.4-5.1-2.5-5.1-5.3c0-2.9,1.6-5.9,4.9-6.6c3.1-0.6,6.3-0.7,9.4-0.7c1.7,0,3.5,0.5,5.2,0.7
		c1.9-11.9,5.2-16.2,11.6-15.6C498.5,174.5,500.8,178.6,501.6,186z"/>
	<path d="M149.7,41c-4.9-4.3-4.9-4.3-1.1-9.8C149,35,149.3,37.4,149.7,41z"/>
	<path class="st0" d="M331.9,168.7c0.9-0.5,1.3-0.9,1.8-1c9.5-3.2,14.4-1.2,17.2,8.7c3.5,12.5,3.5,25.2-2.1,37.4
		c-5,10.8-9.5,21.9-14.9,32.6c-5.6,11.3-13.1,21.3-22.5,29.8c-3.8,3.4-7.7,4.1-12.8,4.6c-3.1-9.3-2.8-18.3-1.7-27.2
		c1.1-8.6,2.7-17.2,4.1-25.6c3.7-1,6.6-1.8,9.2-2.5c0-1.4,0.2-2.2,0-2.4c-6.4-5.7-3.6-11.9-1.1-18.2c2.8-7.3,6.4-13.9,11.7-19.7
		c2.6-2.9,4.9-3.6,8.4-2.1c1.6,0.7,3.6,1.1,5.3,0.8c3.6-0.6,4.8-3.4,3-6.5C335.7,174.4,333.8,171.6,331.9,168.7z"/>
</g>
</svg>
